<svg width="187" height="187" viewBox="0 0 187 187" fill="none" xmlns="http://www.w3.org/2000/svg">
<g filter="url(#filter0_d_523_742)">
<circle cx="93.396" cy="88.396" r="67.396" fill="#FF774A"/>
</g>
<path d="M116.985 60.0897H69.8076C68.5563 60.0897 67.3564 60.5868 66.4716 61.4715C65.5869 62.3563 65.0898 63.5562 65.0898 64.8074V111.985C65.0898 113.236 65.5869 114.436 66.4716 115.321C67.3564 116.205 68.5563 116.702 69.8076 116.702H101.856C102.475 116.703 103.089 116.582 103.661 116.344C104.234 116.107 104.753 115.759 105.19 115.319L120.32 100.19C120.759 99.7533 121.107 99.2336 121.344 98.6612C121.582 98.0888 121.704 97.4751 121.702 96.8555V64.8074C121.702 63.5562 121.205 62.3563 120.321 61.4715C119.436 60.5868 118.236 60.0897 116.985 60.0897ZM83.9607 76.6017H102.832C103.457 76.6017 104.057 76.8503 104.5 77.2926C104.942 77.735 105.19 78.335 105.19 78.9606C105.19 79.5862 104.942 80.1862 104.5 80.6286C104.057 81.0709 103.457 81.3195 102.832 81.3195H83.9607C83.3351 81.3195 82.7351 81.0709 82.2928 80.6286C81.8504 80.1862 81.6019 79.5862 81.6019 78.9606C81.6019 78.335 81.8504 77.735 82.2928 77.2926C82.7351 76.8503 83.3351 76.6017 83.9607 76.6017ZM93.3962 100.19H83.9607C83.3351 100.19 82.7351 99.9418 82.2928 99.4995C81.8504 99.0571 81.6019 98.4571 81.6019 97.8315C81.6019 97.2059 81.8504 96.6059 82.2928 96.1635C82.7351 95.7212 83.3351 95.4726 83.9607 95.4726H93.3962C94.0218 95.4726 94.6218 95.7212 95.0641 96.1635C95.5065 96.6059 95.755 97.2059 95.755 97.8315C95.755 98.4571 95.5065 99.0571 95.0641 99.4995C94.6218 99.9418 94.0218 100.19 93.3962 100.19ZM83.9607 90.7549C83.3351 90.7549 82.7351 90.5064 82.2928 90.064C81.8504 89.6216 81.6019 89.0217 81.6019 88.396C81.6019 87.7704 81.8504 87.1705 82.2928 86.7281C82.7351 86.2857 83.3351 86.0372 83.9607 86.0372H102.832C103.457 86.0372 104.057 86.2857 104.5 86.7281C104.942 87.1705 105.19 87.7704 105.19 88.396C105.19 89.0217 104.942 89.6216 104.5 90.064C104.057 90.5064 103.457 90.7549 102.832 90.7549H83.9607ZM102.832 111.009V97.8315H116.012L102.832 111.009Z" fill="white"/>
<defs>
<filter id="filter0_d_523_742" x="0.254721" y="0.646401" width="186.283" height="186.283" filterUnits="userSpaceOnUse" color-interpolation-filters="sRGB">
<feFlood flood-opacity="0" result="BackgroundImageFix"/>
<feColorMatrix in="SourceAlpha" type="matrix" values="0 0 0 0 0 0 0 0 0 0 0 0 0 0 0 0 0 0 127 0" result="hardAlpha"/>
<feOffset dy="5.39168"/>
<feGaussianBlur stdDeviation="12.8726"/>
<feComposite in2="hardAlpha" operator="out"/>
<feColorMatrix type="matrix" values="0 0 0 0 0 0 0 0 0 0 0 0 0 0 0 0 0 0 0.25 0"/>
<feBlend mode="normal" in2="BackgroundImageFix" result="effect1_dropShadow_523_742"/>
<feBlend mode="normal" in="SourceGraphic" in2="effect1_dropShadow_523_742" result="shape"/>
</filter>
</defs>
</svg>
